<svg width="30" height="30" viewBox="0 0 30 30" fill="none" xmlns="http://www.w3.org/2000/svg">
<path fill-rule="evenodd" clip-rule="evenodd" d="M18.4871 5.47142C17.7114 6.40857 16.3928 7.11142 15.3528 7.11142C15.2498 7.11131 15.147 7.10174 15.0457 7.08285C15.0171 6.94272 15.0023 6.80014 15.0014 6.65714C15.0014 5.47142 15.6157 4.28428 16.2614 3.53714C17.0957 2.55571 18.5028 1.83714 19.6457 1.79428C19.6742 1.92571 19.6885 2.08714 19.6885 2.24857C19.6885 3.43428 19.1914 4.60571 18.4885 5.47142H18.4871ZM13.3928 24.42C12.8714 24.6414 12.3771 24.85 11.7057 24.85C10.2699 24.85 9.25852 23.5329 8.13138 21.9357C6.79852 20.0171 5.71423 17.0729 5.71423 14.2743C5.71423 9.80714 8.62852 7.41857 11.4999 7.41857C12.3414 7.41857 13.1099 7.72857 13.7899 8.00285C14.3299 8.22 14.8142 8.41571 15.2357 8.41571C15.6171 8.41571 16.0842 8.22999 16.6285 8.01571C17.3828 7.71571 18.2814 7.35999 19.2928 7.35999C19.9528 7.35999 22.3114 7.41857 23.8499 9.66L23.7928 9.69857C23.4071 9.95142 21.3728 11.2843 21.3728 14.0414C21.3728 17.4671 24.3614 18.6843 24.4499 18.7129C24.4357 18.7857 23.9657 20.3686 22.8828 21.9943C21.9014 23.4 20.8599 24.8214 19.2928 24.8214C18.5357 24.8214 18.0485 24.6086 17.5442 24.39C17.0071 24.1557 16.4514 23.9129 15.5299 23.9129C14.5942 23.9129 13.9771 24.1743 13.3928 24.42Z" fill="white"/>
</svg>
