<svg width="30" height="30" viewBox="0 0 30 30" fill="none" xmlns="http://www.w3.org/2000/svg">
<path fill-rule="evenodd" clip-rule="evenodd" d="M15.7 13.4871C16.0086 13.3271 19.4857 11.3686 26.1328 7.61571C25.897 7.13771 25.5321 6.73522 25.0794 6.45373C24.6268 6.17225 24.1044 6.023 23.5714 6.02286H6.42855C5.89691 6.02274 5.37578 6.17096 4.92378 6.45085C4.47178 6.73073 4.10683 7.13117 3.86998 7.60714L14.2986 13.4857C14.7171 13.7186 15.23 13.73 15.7 13.4857V13.4871ZM26.4286 20.31V9.95286C20.6428 13.2086 17.4428 15.0057 16.8286 15.3471C15.54 15.8871 14.4457 15.8671 13.3 15.4014C12.8428 15.1843 9.59998 13.3671 3.57141 9.95286V20.31C3.57141 21.0678 3.87243 21.7945 4.40825 22.3303C4.94407 22.8661 5.67079 23.1671 6.42855 23.1671H23.5714C24.3292 23.1671 25.0559 22.8661 25.5917 22.3303C26.1275 21.7945 26.4286 21.0678 26.4286 20.31Z" fill="#1273E4"/>
</svg>
