<svg width="31" height="30" viewBox="0 0 31 30" fill="none" xmlns="http://www.w3.org/2000/svg">
<path d="M26.4714 14.8543C26.4714 14.0443 26.4 13.2643 26.2643 12.5172H15.5V16.9372H21.6514C21.5242 17.6366 21.2564 18.303 20.8643 18.8959C20.4721 19.4889 19.9638 19.9962 19.37 20.3872V23.2543H23.0643C25.2243 21.2643 26.4714 18.3357 26.4714 14.8543Z" fill="#4285F4"/>
<path d="M15.5 26.0229C18.5857 26.0229 21.1714 25 23.0628 23.2543L19.37 20.3871C18.3457 21.0729 17.0371 21.4771 15.4985 21.4771C12.5228 21.4771 10.0028 19.4671 9.10425 16.7657H5.28711V19.7271C6.23822 21.6203 7.69706 23.2118 9.50059 24.3235C11.3041 25.4353 13.3813 26.0237 15.5 26.0229Z" fill="#34A853"/>
<path d="M9.10573 16.7686C8.87716 16.0829 8.74716 15.35 8.74716 14.5972C8.74716 13.8429 8.87573 13.1114 9.10431 12.4257V9.46429H5.28859C4.4885 11.057 4.07216 12.8148 4.07288 14.5972C4.07288 16.44 4.51573 18.1857 5.28716 19.7286L9.10573 16.7686Z" fill="#FBBC05"/>
<path d="M15.5001 7.71286C17.1772 7.71286 18.6843 8.28857 19.8686 9.42143L23.1458 6.14286C21.1672 4.3 18.5801 3.16715 15.5001 3.16715C13.3811 3.16606 11.3037 3.75429 9.49986 4.86609C7.69605 5.9779 6.23699 7.56945 5.28577 9.46286L9.10434 12.4243C10.0043 9.72286 12.5229 7.71286 15.5001 7.71286Z" fill="#EA4335"/>
</svg>
