<svg width="145" height="150" viewBox="0 0 145 150" fill="none" xmlns="http://www.w3.org/2000/svg">
<path d="M122.466 4.31699C122.277 0.288269 119.391 -1.18322 116.014 1.02966C84.4099 21.749 58.5625 63.1295 49.5987 103.345C48.3739 108.842 51.0345 114.47 56.0582 117.029L63.6162 120.879C68.6399 123.438 74.764 122.286 78.5025 118.068C105.846 87.2134 124.22 42.0262 122.466 4.31322V4.31699Z" fill="white"/>
<path d="M102.656 55.1096C92.3241 55.9206 81.8152 52.4922 71.6699 54.6034C70.3829 54.8706 69.1204 55.2395 67.888 55.6873C59.5555 70.8011 53.2204 87.138 49.6119 103.292C48.3795 108.81 51.0176 114.462 56.0601 117.031L63.6181 120.881C68.6625 123.451 74.7941 122.26 78.5458 118.022C94.9753 99.465 108.158 75.733 115.679 51.5626C111.59 53.5064 107.176 54.754 102.656 55.1096Z" fill="#B9EDFE"/>
<path d="M110.384 20.0104C94.0784 43.4714 73.2 84.3419 63.7501 111.297C80.0552 87.8362 100.934 46.9657 110.384 20.0104Z" fill="#95D0FD"/>
<path d="M114.761 132.338C110.911 127.796 89.848 124.324 64.4359 124.324C36.2934 124.324 13.4797 128.583 13.4797 133.838C13.4797 134.946 14.4992 136.011 16.3665 137.001C8.34493 138.228 2.98212 140.454 2.98212 142.996C2.98212 146.865 15.3905 150 30.6969 150C46.0033 150 57.7842 147.019 58.3815 143.284C60.3676 143.327 62.3857 143.352 64.4359 143.352C74.1515 143.352 83.2321 142.844 90.9579 141.963C95.714 143.29 102.938 144.137 111.028 144.137C125.353 144.137 136.966 141.482 136.966 138.207C136.966 135.223 127.318 132.754 114.763 132.34L114.761 132.338Z" fill="#517FE3"/>
<path d="M34.5805 135.524C34.5805 136.429 35.3154 137.161 36.2199 137.161H37.7688C38.6752 137.161 39.4082 136.427 39.4082 135.524V135.374H34.5786V135.524H34.5805Z" fill="#47436C"/>
<path d="M39.4102 133.584H34.5806V135.374H39.4102V133.584Z" fill="#32304A"/>
<path d="M100.562 133.584H95.7328V135.374H100.562V133.584Z" fill="#32304A"/>
<path d="M95.7328 135.374V135.524C95.7328 136.429 96.4677 137.161 97.3721 137.161H98.9211C99.8274 137.161 100.56 136.427 100.56 135.524V135.374H95.7309H95.7328Z" fill="#47436C"/>
<path d="M54.3453 41.0628V45.8687H59.4198V43.1515C59.4198 42.8372 59.6761 42.5813 59.9907 42.5813H77.451C77.7657 42.5813 78.0219 42.8372 78.0219 43.1515V45.8687H83.0964V41.0628C83.0964 39.104 81.5061 37.5139 79.5426 37.5139H57.8991C55.9357 37.5139 54.3453 39.1021 54.3453 41.0628Z" fill="#47436C"/>
<path d="M58.4098 45.8705H55.3553V48.375H58.4098V45.8705Z" fill="#69699A"/>
<path d="M58.4098 48.375H55.3553V73.0027H58.4098V48.375Z" fill="#ABABE1"/>
<path d="M82.0864 45.8705H79.0319V48.375H82.0864V45.8705Z" fill="#69699A"/>
<path d="M82.0864 48.375H79.0319V73.0027H82.0864V48.375Z" fill="#ABABE1"/>
<path d="M45.1874 116.673C60.9046 115.269 76.8536 111.956 90.1985 103.548C97.7471 98.7933 104.352 92.1716 108.765 84.466V78.4992C108.765 75.4621 106.3 73.0009 103.259 73.0009H31.8821C28.8408 73.0009 26.3761 75.4621 26.3761 78.4992V116.718C32.5718 117.497 38.9408 117.23 45.1874 116.673Z" fill="#F0C344"/>
<path d="M90.1985 103.548C76.8518 111.956 60.9046 115.269 45.1874 116.673C38.9408 117.23 32.5737 117.499 26.3761 116.718V128.086C26.3761 131.123 28.8408 133.584 31.8821 133.584H103.259C106.3 133.584 108.765 131.123 108.765 128.086V84.4661C104.352 92.1716 97.7453 98.7933 90.1985 103.548Z" fill="#E19F2C"/>
<path d="M49.1991 72.1672H40.8289V134.478H49.1991V72.1672Z" fill="#7776A6"/>
<path d="M94.312 72.1672H85.9418V134.478H94.312V72.1672Z" fill="#7776A6"/>
<path d="M40.8289 112.409V134.48H49.1991V111.677C47.8613 111.826 46.5234 111.961 45.1874 112.08C43.7402 112.21 42.2855 112.321 40.8289 112.411V112.409Z" fill="#4F4E78"/>
<path d="M85.9418 101.418V134.48H94.312V96.1062C92.9779 97.1167 91.6042 98.0688 90.1985 98.9551C88.8078 99.832 87.3871 100.649 85.9418 101.418Z" fill="#4F4E78"/>
<path d="M103.259 73.0027H94.312V100.701C100.133 96.2887 105.173 90.7358 108.765 84.4679V78.501C108.765 75.4639 106.3 73.0027 103.259 73.0027Z" fill="#F0C344"/>
<path d="M56.0468 73.0027H49.1992V81.9069C51.7129 79.1257 54.008 76.147 56.0468 73.0027Z" fill="#E19F2C"/>
<path d="M40.8289 73.0027H31.8821C28.8408 73.0027 26.3761 75.4639 26.3761 78.501V98.8008C31.5298 96.3922 36.3894 93.357 40.8289 89.7968V73.0027Z" fill="#E19F2C"/>
<path d="M49.1991 81.9069V72.1672H40.8289V89.7969C43.8231 87.3939 46.627 84.7539 49.1991 81.9069Z" fill="#4F4E78"/>
<path d="M56.614 105.323L67.2699 103.844L68.5117 112.757C68.7208 112.701 68.9281 112.643 69.1373 112.584L67.8107 103.059L55.8791 104.715L57.3319 115.153C57.543 115.117 57.7559 115.081 57.9669 115.046L56.614 105.323Z" fill="#C82441"/>
<path d="M62.8115 112.36C62.7493 112.355 62.6853 112.353 62.6231 112.345C61.6941 112.214 61.0308 111.679 60.6314 110.75C60.6144 110.708 60.6182 110.68 60.6445 110.646C60.8876 110.311 61.1288 109.974 61.37 109.639C61.3889 109.613 61.3907 109.592 61.3757 109.56C61.2928 109.391 61.2117 109.22 61.1307 109.05C61.125 109.037 61.1194 109.026 61.1119 109.005C61.3681 108.909 61.6206 108.813 61.8826 108.714C61.7205 108.556 61.566 108.403 61.4039 108.245C61.5773 108.145 61.7469 108.047 61.9221 107.948C61.7865 107.714 61.6546 107.487 61.5189 107.252C61.5415 107.248 61.5547 107.244 61.5698 107.24C62.6118 107.095 63.6557 106.95 64.6978 106.806C64.743 106.8 64.758 106.813 64.7637 106.86C64.7976 107.114 64.8372 107.366 64.873 107.62C64.9578 108.222 65.0463 108.823 65.1236 109.425C65.2517 110.432 64.9503 111.246 64.2267 111.865C64.0194 112.042 63.7857 112.165 63.5313 112.247C63.5182 112.251 63.505 112.257 63.488 112.264C63.5653 112.816 63.6425 113.371 63.7198 113.922C65.1858 113.598 66.6443 113.247 68.0933 112.865L66.91 104.365L57.1039 105.727L58.3909 114.974C59.9511 114.703 61.5038 114.402 63.0508 114.071C62.9717 113.501 62.8926 112.932 62.8134 112.362L62.8115 112.36ZM60.1113 110.497C60.1113 110.497 60.1019 110.497 60.0981 110.497C60.0774 110.388 60.0529 110.281 60.0378 110.172C59.921 109.344 59.806 108.514 59.6911 107.686C59.6854 107.645 59.6835 107.602 59.676 107.56C59.6666 107.515 59.6854 107.504 59.7212 107.5C59.8399 107.485 59.9586 107.468 60.0774 107.451C60.3299 107.415 60.5824 107.381 60.833 107.346C60.8575 107.342 60.8763 107.342 60.8914 107.37C60.9931 107.547 61.0949 107.722 61.1967 107.897C61.2004 107.904 61.2042 107.914 61.2098 107.927C61.0195 108.036 60.8292 108.145 60.6332 108.258C60.7821 108.403 60.9253 108.544 61.0761 108.691C60.8499 108.776 60.6295 108.858 60.4052 108.945C60.4147 108.966 60.4222 108.985 60.4297 109.001C60.5239 109.199 60.6182 109.399 60.7143 109.596C60.7293 109.626 60.7293 109.647 60.7086 109.675C60.5164 109.94 60.3242 110.208 60.132 110.475C60.1245 110.484 60.1169 110.492 60.1094 110.501L60.1113 110.497Z" fill="#C82441"/>
<path d="M61.7017 117.853C61.8072 117.838 61.8486 117.778 61.8373 117.687C61.8241 117.597 61.7676 117.55 61.6621 117.565L61.5226 117.584L61.5622 117.874L61.7017 117.855V117.853Z" fill="#9A1941"/>
<path d="M62.9114 117.48L62.8455 117.806L63.064 117.774L62.9114 117.48Z" fill="#9A1941"/>
<path d="M69.0355 119.633L68.0934 112.865C66.6443 113.247 65.1877 113.598 63.7198 113.922C63.7745 114.319 63.831 114.716 63.8856 115.115C63.9309 115.111 63.978 115.108 64.0232 115.102C64.3718 115.066 64.7204 115.036 65.0728 115.046C65.1858 115.049 65.3008 115.066 65.4138 115.085C65.4854 115.096 65.4949 115.115 65.5043 115.194C65.5118 115.243 65.5175 115.294 65.525 115.343C65.53 115.383 65.5137 115.406 65.476 115.411C65.1764 115.452 64.8787 115.493 64.5791 115.535C63.635 115.666 62.6891 115.796 61.745 115.928C61.7036 115.934 61.6923 115.921 61.6885 115.881C61.6828 115.823 61.6753 115.766 61.664 115.71C61.6546 115.661 61.6697 115.629 61.7055 115.61C61.7827 115.571 61.86 115.531 61.9391 115.503C62.2161 115.405 62.5044 115.343 62.7908 115.286C62.9265 115.26 63.0641 115.236 63.2054 115.209C63.1526 114.829 63.0999 114.449 63.0471 114.069C61.502 114.4 59.9474 114.701 58.3871 114.972L59.2257 120.994L69.0318 119.631L69.0355 119.633ZM67.3076 116.453L67.3509 116.767L66.8064 116.843L66.8271 116.987L67.3057 116.922L67.3472 117.221L66.8685 117.287L66.8911 117.448L67.4564 117.369L67.4998 117.684L66.5595 117.813L66.388 116.579L67.3076 116.451V116.453ZM65.7737 116.666L65.9 117.576L66.4106 117.505L66.4559 117.827L65.5646 117.951L65.3931 116.716L65.7737 116.664V116.666ZM65.2084 116.745L65.3799 117.979L64.9993 118.032L64.8278 116.797L65.2084 116.745ZM64.1758 116.859C64.3982 116.829 64.5904 116.888 64.726 117.025L64.515 117.294C64.4321 117.213 64.3435 117.179 64.2418 117.194C64.0741 117.217 63.9836 117.351 64.01 117.541C64.0364 117.725 64.1589 117.834 64.3228 117.812C64.3699 117.806 64.4133 117.791 64.4566 117.763L64.4132 117.45L64.7449 117.405L64.8184 117.926C64.6959 118.047 64.5131 118.128 64.3473 118.152C63.9817 118.203 63.6784 117.973 63.6256 117.595C63.5728 117.217 63.8027 116.912 64.1758 116.861V116.859ZM61.6414 117.24C61.9561 117.196 62.1822 117.349 62.2218 117.633C62.2463 117.812 62.1878 117.957 62.0635 118.051L62.3518 118.395L62.674 117.095L63.049 117.042L63.7142 118.207L63.3203 118.261L63.2148 118.056L62.7852 118.116L62.74 118.342L62.3556 118.395L61.9485 118.451L61.713 118.167L61.6094 118.182L61.6527 118.493L61.2721 118.545L61.1006 117.311L61.6452 117.236L61.6414 117.24ZM60.9762 117.332L61.0196 117.646L60.4825 117.721L60.5127 117.932L60.9838 117.866L61.0271 118.18L60.556 118.246L60.6107 118.641L60.23 118.694L60.0586 117.46L60.9781 117.332H60.9762Z" fill="#9A1941"/>
<path d="M70.2603 120.645L69.1373 112.584C68.9281 112.643 68.7208 112.701 68.5117 112.757L69.5254 120.04L58.8695 121.519L57.9688 115.045C57.7578 115.081 57.5448 115.117 57.3338 115.153L58.3287 122.303L70.2603 120.647V120.645Z" fill="#9A1941"/>
<path d="M56.614 105.323L57.9669 115.046C58.1082 115.021 58.2496 114.999 58.3909 114.974L57.1039 105.727L66.91 104.365L68.0933 112.865C68.2328 112.827 68.3722 112.793 68.5116 112.756L67.2699 103.842L56.614 105.321V105.323Z" fill="white"/>
<path d="M69.0355 119.633L59.2294 120.995L58.3909 114.974C58.2496 114.998 58.1082 115.021 57.9669 115.045L58.8676 121.519L69.5235 120.04L68.5098 112.757C68.3703 112.795 68.2309 112.831 68.0914 112.866L69.0336 119.635L69.0355 119.633Z" fill="white"/>
<path d="M63.5333 112.249C63.7858 112.166 64.0213 112.044 64.2286 111.867C64.9522 111.248 65.2537 110.433 65.1255 109.427C65.0483 108.825 64.9597 108.224 64.8749 107.622C64.8391 107.368 64.8014 107.116 64.7656 106.862C64.76 106.815 64.7449 106.802 64.6997 106.807C63.6576 106.954 62.6137 107.097 61.5717 107.242C61.5566 107.244 61.5415 107.248 61.5208 107.253C61.6565 107.489 61.7903 107.716 61.9241 107.95C61.7507 108.049 61.5811 108.147 61.4059 108.247C61.5679 108.405 61.7224 108.557 61.8845 108.715C61.6226 108.815 61.3682 108.909 61.1138 109.007C61.1213 109.028 61.127 109.039 61.1326 109.052C61.2137 109.223 61.2947 109.393 61.3776 109.562C61.3927 109.594 61.3908 109.613 61.3719 109.641C61.1289 109.976 60.8896 110.313 60.6465 110.648C60.622 110.684 60.6163 110.71 60.6333 110.751C61.0328 111.681 61.696 112.213 62.625 112.347C62.6872 112.357 62.7494 112.358 62.8135 112.362C62.8926 112.932 62.9717 113.502 63.0509 114.071C63.2751 114.024 63.4975 113.973 63.7217 113.924C63.6444 113.371 63.5672 112.818 63.4899 112.266C63.5069 112.261 63.5201 112.255 63.5333 112.249Z" fill="white"/>
<path d="M63.2092 115.211C63.0678 115.237 62.9322 115.262 62.7946 115.288C62.5063 115.345 62.2199 115.407 61.9429 115.505C61.8619 115.533 61.7846 115.574 61.7092 115.612C61.6734 115.631 61.6584 115.665 61.6678 115.712C61.6791 115.768 61.6866 115.826 61.6923 115.883C61.6961 115.924 61.7092 115.935 61.7488 115.93C62.6929 115.798 63.6388 115.666 64.5828 115.537C64.8825 115.495 65.1802 115.454 65.4798 115.412C65.5175 115.407 65.5338 115.385 65.5288 115.345C65.5213 115.296 65.5156 115.245 65.5081 115.196C65.4968 115.117 65.4892 115.1 65.4176 115.087C65.3045 115.068 65.1896 115.051 65.0765 115.047C64.7261 115.038 64.3756 115.066 64.027 115.104C63.9799 115.109 63.9346 115.111 63.8894 115.117C63.8329 114.718 63.7782 114.321 63.7236 113.924C63.4994 113.973 63.277 114.022 63.0528 114.071C63.1055 114.451 63.1583 114.831 63.2111 115.211H63.2092Z" fill="white"/>
<path d="M60.7143 109.592C60.6182 109.395 60.5239 109.197 60.4297 108.998C60.4222 108.981 60.4147 108.962 60.4052 108.941C60.6314 108.857 60.8499 108.774 61.0761 108.687C60.9253 108.541 60.7821 108.399 60.6332 108.255C60.8292 108.142 61.0195 108.032 61.2098 107.923C61.2042 107.91 61.2004 107.901 61.1967 107.893C61.0949 107.718 60.9931 107.541 60.8914 107.366C60.8763 107.338 60.8575 107.34 60.833 107.342C60.5805 107.378 60.328 107.412 60.0774 107.447C59.9586 107.464 59.8399 107.481 59.7212 107.496C59.6854 107.5 59.6666 107.513 59.676 107.556C59.6835 107.598 59.6854 107.641 59.6911 107.682C59.806 108.51 59.921 109.34 60.0378 110.168C60.0529 110.277 60.0774 110.385 60.0981 110.494C60.1019 110.494 60.1075 110.494 60.1113 110.494C60.1188 110.484 60.1264 110.477 60.1339 110.467C60.3261 110.2 60.5164 109.933 60.7105 109.668C60.7312 109.639 60.7312 109.619 60.7162 109.589L60.7143 109.592Z" fill="white"/>
<path d="M60.6087 118.641L60.5541 118.246L61.0252 118.18L60.9818 117.866L60.5108 117.932L60.4806 117.719L61.0176 117.646L60.9743 117.332L60.0547 117.46L60.2281 118.694L60.6087 118.641Z" fill="white"/>
<path d="M61.6489 118.497L61.6056 118.186L61.7092 118.171L61.9447 118.455L62.3518 118.399H62.348V118.395L62.0597 118.051C62.184 117.956 62.2443 117.812 62.218 117.633C62.1784 117.347 61.9523 117.194 61.6376 117.24L61.093 117.315L61.2645 118.549L61.6451 118.497H61.6489ZM61.6602 117.563C61.7657 117.548 61.8223 117.597 61.8354 117.685C61.8486 117.776 61.8053 117.838 61.6998 117.851L61.5603 117.87L61.5208 117.58L61.6602 117.561V117.563Z" fill="white"/>
<path d="M62.7362 118.346L62.7814 118.12L63.211 118.06L63.3166 118.265L63.7104 118.211L63.0452 117.046L62.6702 117.098L62.348 118.399V118.402L62.7343 118.35L62.7362 118.346ZM62.9114 117.48L63.0641 117.776L62.8436 117.806L62.9096 117.48H62.9114Z" fill="white"/>
<path d="M62.3513 118.398L62.3496 118.395L62.348 118.398H62.3513Z" fill="white"/>
<path d="M64.3473 118.15C64.5131 118.128 64.6959 118.047 64.8184 117.924L64.7449 117.403L64.4133 117.448L64.4566 117.761C64.4133 117.789 64.368 117.804 64.3228 117.81C64.1589 117.832 64.0364 117.723 64.01 117.539C63.9836 117.349 64.0741 117.215 64.2418 117.192C64.3417 117.179 64.4302 117.213 64.515 117.292L64.7261 117.023C64.5904 116.886 64.3982 116.826 64.1758 116.858C63.8027 116.91 63.5728 117.213 63.6256 117.591C63.6784 117.97 63.9817 118.199 64.3473 118.148V118.15Z" fill="white"/>
<path d="M65.1978 116.749L64.8171 116.802L64.9887 118.035L65.3695 117.983L65.1978 116.749Z" fill="white"/>
<path d="M66.4558 117.829L66.4106 117.507L65.9 117.576L65.7737 116.666L65.3931 116.718L65.5645 117.953L66.4558 117.829Z" fill="white"/>
<path d="M67.5017 117.684L67.4564 117.369L66.8911 117.448L66.8685 117.287L67.3471 117.219L67.3057 116.92L66.8271 116.986L66.8082 116.843L67.3509 116.765L67.3076 116.453L66.3899 116.579L66.5614 117.813L67.5017 117.684Z" fill="white"/>
<path d="M83.3904 88.8259L80.6676 80.9247C79.878 78.6309 76.897 78.0532 75.3047 79.8822L69.8138 86.1878C68.2196 88.0187 69.2089 90.8845 71.5926 91.3474L79.8064 92.9431C82.1901 93.406 84.1818 91.1178 83.3923 88.8259H83.3904Z" fill="#C82441"/>
<path d="M80.4245 92.2243C80.2699 92.2243 80.1117 92.2092 79.9553 92.1791L71.7415 90.5834C70.8992 90.4197 70.2302 89.8383 69.9513 89.0291C69.6725 88.22 69.842 87.3488 70.4036 86.7034L75.8945 80.3978C76.3524 79.8709 76.9837 79.583 77.6733 79.583C78.7078 79.583 79.5935 80.2115 79.927 81.1825L82.6499 89.0837C82.9024 89.8176 82.7893 90.5985 82.3408 91.227C81.8942 91.8536 81.1763 92.228 80.4226 92.228L80.4245 92.2243Z" fill="white"/>
<path d="M80.4244 91.4434C80.3208 91.4434 80.2115 91.4321 80.1022 91.4114L71.8884 89.8158C71.325 89.7066 70.8746 89.3171 70.6881 88.7733C70.5015 88.2295 70.6146 87.6481 70.9915 87.2134L76.4824 80.9078C76.7933 80.5503 77.206 80.3602 77.6714 80.3602C78.3667 80.3602 78.9622 80.7817 79.1864 81.4328L81.9093 89.3341C82.0789 89.8252 82.0035 90.3483 81.7039 90.7698C81.4024 91.1913 80.9238 91.4416 80.4225 91.4416L80.4244 91.4434Z" fill="#C82441"/>
<path d="M80.2096 88.3498L80.3208 87.7835L79.1789 86.6525L79.2675 86.2028C79.2919 86.0786 79.2109 85.9563 79.0847 85.9319C78.9603 85.9074 78.8378 85.9883 78.8133 86.1144L78.7851 86.263L77.6639 85.151L77.8165 84.5187C77.9447 83.9862 77.939 83.4292 77.7958 82.8986C77.7336 82.6671 77.4321 82.6069 77.287 82.7988C76.9554 83.2373 76.7406 83.7491 76.6577 84.2929L76.5615 84.9364L75.1031 85.5442L75.1313 85.3956C75.1558 85.2714 75.0748 85.1491 74.9486 85.1246C74.8242 85.1001 74.7017 85.1811 74.6772 85.3071L74.5887 85.7569L73.1057 86.3759L72.9945 86.9423L76.277 86.8163L76.1018 87.9773L74.8204 88.5324L74.7394 88.9463L75.9642 88.8937L75.9529 88.967C75.9228 89.1684 76.0565 89.3603 76.2582 89.3979C76.4598 89.4375 76.6558 89.3114 76.7029 89.1119L76.7198 89.0404L77.8354 89.5485L77.9164 89.1345L76.9384 88.1391L77.2135 86.9969L80.2077 88.348L80.2096 88.3498Z" fill="white"/>
<path d="M25.9704 98.1782L13.502 103.176L15.7847 108.855L28.253 103.857L25.9704 98.1782Z" fill="#47436C"/>
<path d="M24.9257 100.715L16.0107 104.289L17.5598 108.143L26.4748 104.569L24.9257 100.715Z" fill="white"/>
<path d="M44.249 102.197C43.3408 99.9374 40.7706 98.8404 38.5075 99.7473L5.47321 112.989C3.21013 113.896 2.11156 116.462 3.01981 118.722L5.14157 124.002L46.3708 107.477L44.249 102.197Z" fill="#A7A7D1"/>
<path d="M5.14343 124.002L11.7103 140.341C12.2606 141.707 13.8151 142.372 15.185 141.822L51.4566 127.284C52.8246 126.735 53.4898 125.182 52.9396 123.814L46.3727 107.475L5.14343 124.002Z" fill="#47436C"/>
<path d="M38.5979 116.336C40.9967 122.307 38.0967 129.089 32.1177 131.484C26.1387 133.879 19.3475 130.984 16.9488 125.013C14.55 119.042 17.45 112.261 23.429 109.865C29.408 107.47 36.1991 110.366 38.5979 116.336Z" fill="#CFCEED"/>
<path d="M31.0493 128.829C26.5476 130.634 21.4147 128.443 19.6076 123.948C17.8006 119.452 19.992 114.327 24.4956 112.522C28.9973 110.718 34.1302 112.908 35.9373 117.403C37.7443 121.899 35.551 127.024 31.0493 128.829Z" fill="#47436C"/>
<path d="M25.8938 117.678C26.4214 118.991 25.7826 120.486 24.4673 121.012C23.1521 121.539 21.6559 120.901 21.1283 119.588C20.6007 118.275 21.2395 116.78 22.5547 116.254C23.87 115.727 25.3662 116.365 25.8938 117.678Z" fill="white"/>
<path d="M24.7481 123.237C25.0062 123.878 24.6934 124.608 24.0509 124.864C23.4083 125.122 22.6772 124.81 22.4209 124.168C22.1628 123.526 22.4756 122.796 23.1181 122.538C23.7607 122.281 24.4918 122.593 24.7481 123.235V123.237Z" fill="white"/>
<path d="M12.4244 132.392L12.4926 132.364C13.1398 132.105 13.8748 132.419 14.1342 133.065L15.6105 136.744C15.8692 137.388 15.5547 138.122 14.9093 138.381L14.8411 138.408C14.1939 138.667 13.4589 138.353 13.1996 137.707L11.7232 134.028C11.4646 133.384 11.779 132.65 12.4244 132.392Z" fill="#66668C"/>
<path d="M17.0603 134.026L17.1197 134.002C17.6846 133.776 18.3266 134.05 18.5533 134.614L18.9405 135.578C19.1672 136.142 18.8928 136.783 18.3279 137.009L18.2684 137.033C17.7036 137.26 17.0616 136.986 16.8349 136.421L16.4469 135.456C16.2203 134.892 16.4947 134.251 17.0596 134.024L17.0603 134.026Z" fill="#66668C"/>
<path d="M13.1449 113.233L5.53973 116.281L7.00745 119.932L14.6126 116.884L13.1449 113.233Z" fill="white"/>
<path d="M42.229 102.805C41.7674 101.657 40.4597 101.098 39.3102 101.559L36.8474 102.547C35.3324 103.155 34.605 104.879 35.2287 106.384L35.4021 106.806C36.0202 108.3 36.8775 109.666 37.9271 110.861L44.4205 108.258L42.229 102.805Z" fill="#CFCEED"/>
<path d="M46.499 113.431L44.4205 108.26L37.9271 110.863C39.1802 112.291 40.7065 113.474 42.4382 114.332L44.4469 115.326C45.6774 115.936 47.0115 114.705 46.499 113.431Z" fill="#66668C"/>
<path d="M36.5258 87.3537C48.4068 77.1163 54.6774 64.9277 50.5315 60.1297C46.3857 55.3317 33.3934 59.7412 21.5124 69.9786C9.63143 80.2161 3.36088 92.4047 7.50672 97.2027C11.6526 102.001 24.6449 97.5911 36.5258 87.3537Z" fill="#CC8E52"/>
<path d="M39.9584 64.2266C39.6249 63.8389 39.1972 63.5491 38.6941 63.3478L33.7778 61.5602C33.9097 61.6637 34.0416 61.7672 34.1509 61.8932C36.4762 64.5841 32.9581 71.424 26.2933 77.167C20.4386 82.2118 14.1054 84.7314 11.0754 83.4481L11.961 86.1164C11.961 86.1164 12.3115 87.2792 12.694 87.7214C15.3208 90.7623 23.5553 87.9661 31.0832 81.478C38.613 74.9899 42.5871 67.2655 39.9584 64.2247V64.2266Z" fill="#85483C"/>
<path d="M26.2933 77.167C32.9582 71.4221 36.4762 64.584 34.1509 61.8932C34.0416 61.7671 33.9097 61.6636 33.7778 61.5601L25.8542 58.6812L8.19989 74.7923L11.0754 83.4481C14.1073 84.7333 20.4386 82.2118 26.2933 77.167Z" fill="#CC8E52"/>
<path d="M26.3893 59.1159C28.1418 61.1443 25.4905 66.2983 20.4669 70.6262C15.4432 74.9541 9.95041 76.8189 8.19798 74.7904C6.44555 72.7619 9.09681 67.608 14.1186 63.2801C19.1422 58.9521 24.635 57.0874 26.3875 59.1159H26.3893Z" fill="#E7AA5A"/>
<path d="M114.942 142.785L144.268 87.3824L117.27 73.1318L87.9438 128.535L114.942 142.785Z" fill="white"/>
<path d="M112.924 141.72L142.25 86.3176L119.285 74.1959L89.9596 129.599L112.924 141.72Z" fill="#C8E3FE"/>
<path d="M110.794 140.596L140.119 85.1929L121.418 75.3214L92.092 130.724L110.794 140.596Z" fill="white"/>
<path d="M114.846 128.47L91.1445 115.96C90.5245 115.633 90.2871 114.865 90.615 114.246L107.178 82.9512C107.506 82.3322 108.275 82.0951 108.895 82.4225L132.596 94.932C133.216 95.2594 133.453 96.0272 133.126 96.6463L116.562 127.941C116.234 128.56 115.466 128.797 114.846 128.47Z" fill="#C82441"/>
<path d="M115.122 85.7119L111.884 84.0024L94.1315 117.541L97.37 119.25L115.122 85.7119Z" fill="#9A1941"/>
<path d="M111.012 83.5394L109.837 82.9194L92.085 116.458L93.2595 117.077L111.012 83.5394Z" fill="#9A1941"/>
<path d="M114.427 100.502C109.524 97.9145 103.427 99.7924 100.836 104.689C98.2446 109.585 100.125 115.674 105.028 118.261C109.931 120.849 116.029 118.971 118.62 114.074C121.211 109.178 119.33 103.089 114.427 100.502ZM119.074 110.563C118.846 109.372 118.275 108.155 117.42 107.012C117.482 105.588 117.267 104.26 116.783 103.147C118.571 105.17 119.409 107.886 119.074 110.563ZM106.796 114.921C106.27 114.645 105.774 114.34 105.309 114.014C105.565 113.058 105.935 112.008 106.398 110.915C107.028 111.301 107.678 111.672 108.333 112.018C108.989 112.364 109.662 112.691 110.336 112.993C109.692 113.99 109.032 114.887 108.384 115.636C107.853 115.435 107.321 115.198 106.796 114.921ZM108.629 111.457C107.941 111.094 107.28 110.716 106.653 110.33C106.954 109.658 107.288 108.973 107.651 108.286C108.015 107.6 108.394 106.939 108.78 106.312C109.453 106.614 110.139 106.947 110.826 107.31C111.514 107.673 112.176 108.051 112.803 108.437C112.501 109.109 112.168 109.794 111.804 110.48C111.441 111.167 111.062 111.828 110.676 112.454C110.003 112.153 109.317 111.82 108.629 111.457ZM104.18 106.455C104.457 105.931 104.763 105.436 105.089 104.971C106.046 105.227 107.097 105.596 108.192 106.058C107.806 106.687 107.435 107.336 107.088 107.991C106.741 108.646 106.413 109.318 106.112 109.991C105.113 109.348 104.214 108.689 103.464 108.042C103.666 107.511 103.903 106.98 104.18 106.455ZM112.66 103.844C113.186 104.12 113.681 104.425 114.147 104.751C113.89 105.707 113.521 106.757 113.057 107.85C112.428 107.464 111.778 107.093 111.122 106.747C110.466 106.401 109.794 106.074 109.119 105.772C109.764 104.775 110.423 103.878 111.071 103.129C111.603 103.33 112.134 103.567 112.66 103.844ZM113.344 108.776C114.342 109.419 115.241 110.078 115.991 110.725C115.79 111.256 115.552 111.786 115.275 112.311C114.998 112.836 114.693 113.331 114.367 113.796C113.41 113.54 112.358 113.171 111.263 112.708C111.65 112.08 112.021 111.431 112.368 110.776C112.714 110.121 113.042 109.449 113.344 108.776ZM116.216 110.087C115.45 109.449 114.557 108.804 113.6 108.19C114.045 107.144 114.42 106.109 114.691 105.151C115.505 105.782 116.208 106.48 116.783 107.21C116.721 108.138 116.532 109.109 116.216 110.087ZM117.337 107.985C118.326 109.521 118.757 111.15 118.475 112.597C118.145 111.963 117.533 111.259 116.734 110.535C117.028 109.677 117.229 108.819 117.339 107.985H117.337ZM114.864 104.487C115.117 103.439 115.224 102.513 115.14 101.804C116.189 102.841 116.753 104.429 116.802 106.254C116.242 105.626 115.592 105.031 114.864 104.487ZM114.309 104.09C113.881 103.802 113.43 103.531 112.958 103.281C112.485 103.031 112.006 102.813 111.525 102.622C112.888 101.177 113.764 100.869 114.131 101.063C114.499 101.256 114.736 102.154 114.309 104.092V104.09ZM110.883 102.385C110.024 102.092 109.164 101.891 108.33 101.781C109.867 100.793 111.499 100.363 112.948 100.645C112.313 100.974 111.608 101.586 110.883 102.383V102.385ZM110.432 102.901C109.794 103.665 109.147 104.557 108.533 105.513C107.485 105.069 106.449 104.694 105.49 104.423C106.121 103.61 106.82 102.909 107.551 102.335C108.48 102.397 109.453 102.585 110.432 102.901ZM104.827 104.25C103.777 103.998 102.85 103.891 102.14 103.975C103.178 102.927 104.768 102.365 106.596 102.316C105.967 102.875 105.371 103.524 104.827 104.25ZM104.429 104.805C104.141 105.232 103.869 105.682 103.619 106.154C103.368 106.627 103.15 107.105 102.959 107.585C101.512 106.224 101.203 105.349 101.397 104.982C101.591 104.615 102.49 104.378 104.431 104.805H104.429ZM102.722 108.226C102.428 109.084 102.226 109.942 102.117 110.776C101.128 109.24 100.696 107.611 100.979 106.164C101.309 106.798 101.921 107.502 102.72 108.226H102.722ZM103.238 108.676C104.003 109.314 104.896 109.959 105.854 110.573C105.409 111.619 105.034 112.654 104.763 113.612C103.949 112.981 103.246 112.283 102.671 111.553C102.733 110.625 102.922 109.654 103.238 108.676ZM104.589 114.274C104.337 115.322 104.229 116.248 104.314 116.957C103.264 115.92 102.701 114.332 102.652 112.507C103.212 113.136 103.862 113.73 104.589 114.274ZM105.145 114.671C105.573 114.959 106.023 115.23 106.496 115.48C106.969 115.73 107.448 115.949 107.928 116.139C106.568 117.584 105.69 117.892 105.322 117.699C104.955 117.505 104.717 116.607 105.145 114.669V114.671ZM108.571 116.376C109.43 116.669 110.289 116.871 111.124 116.98C109.586 117.968 107.955 118.399 106.506 118.116C107.141 117.787 107.845 117.176 108.571 116.378V116.376ZM109.021 115.86C109.66 115.096 110.306 114.204 110.921 113.248C111.968 113.693 113.005 114.067 113.964 114.338C113.332 115.151 112.633 115.853 111.902 116.427C110.973 116.365 110.001 116.176 109.021 115.86ZM114.627 114.511C115.677 114.763 116.604 114.87 117.314 114.786C116.276 115.834 114.685 116.397 112.858 116.445C113.487 115.887 114.082 115.237 114.627 114.511ZM115.025 113.956C115.313 113.529 115.584 113.079 115.835 112.607C116.086 112.134 116.304 111.657 116.494 111.177C117.942 112.537 118.251 113.412 118.057 113.779C117.862 114.146 116.964 114.383 115.023 113.956H115.025ZM110.911 100.048C109.718 100.276 108.499 100.846 107.355 101.7C105.929 101.638 104.599 101.853 103.485 102.336C105.511 100.551 108.23 99.7134 110.911 100.048ZM100.381 108.2C100.609 109.391 101.18 110.608 102.036 111.751C101.974 113.175 102.189 114.504 102.673 115.616C100.885 113.593 100.046 110.877 100.381 108.2ZM108.544 118.715C109.737 118.487 110.956 117.917 112.1 117.063C113.527 117.125 114.857 116.91 115.971 116.427C113.945 118.212 111.226 119.05 108.544 118.715Z" fill="#EFBEBA"/>
<path d="M112.396 89.7762C112.159 90.2259 111.663 90.3275 111.122 90.0415L110.841 89.8928L110.589 90.3708L109.933 90.0246L110.962 88.0826L111.899 88.5775C112.441 88.8635 112.635 89.3283 112.398 89.778L112.396 89.7762ZM111.735 89.4281C111.81 89.2869 111.769 89.1552 111.588 89.0592L111.348 88.9332L111.107 89.3885L111.346 89.5146C111.527 89.6106 111.659 89.5692 111.733 89.4281H111.735Z" fill="#EFBEBA"/>
<path d="M113.376 91.4077L112.637 91.0181L112.328 91.2872L111.661 90.9354L113.54 89.4413L114.184 89.7819L114.007 92.1735L113.329 91.816L113.378 91.4077H113.376ZM113.446 90.8413L113.515 90.2523L113.069 90.6418L113.447 90.8413H113.446Z" fill="#EFBEBA"/>
<path d="M114.071 92.0079L114.535 91.6428C114.661 91.8479 114.868 92.0455 115.083 92.1584C115.27 92.2563 115.356 92.2525 115.392 92.1867C115.522 91.942 114.343 91.5713 114.725 90.8469C114.915 90.4856 115.375 90.352 115.978 90.67C116.24 90.8074 116.479 91.0049 116.623 91.227L116.174 91.5977C116.035 91.4001 115.878 91.2571 115.709 91.1668C115.516 91.0652 115.426 91.0896 115.392 91.1555C115.27 91.3888 116.447 91.7614 116.069 92.4783C115.88 92.834 115.418 92.9732 114.815 92.6552C114.489 92.484 114.205 92.2299 114.073 92.0079H114.071Z" fill="#EFBEBA"/>
<path d="M115.897 92.9713L116.361 92.6062C116.487 92.8113 116.694 93.0089 116.909 93.1218C117.096 93.2197 117.182 93.2159 117.218 93.15C117.348 92.9054 116.168 92.5347 116.551 91.8103C116.741 91.449 117.201 91.3154 117.804 91.6334C118.066 91.7707 118.305 91.9683 118.448 92.1904L118 92.5611C117.861 92.3635 117.704 92.2205 117.535 92.1301C117.342 92.0285 117.252 92.053 117.218 92.1189C117.096 92.3522 118.273 92.7248 117.894 93.4417C117.706 93.7973 117.244 93.9366 116.641 93.6186C116.315 93.4473 116.031 93.1933 115.899 92.9713H115.897Z" fill="#EFBEBA"/>
<path d="M120.224 93.9084C119.986 94.3581 119.49 94.4597 118.95 94.1737L118.669 94.025L118.416 94.503L117.761 94.1568L118.79 92.2148L119.726 92.7097C120.269 92.9957 120.463 93.4605 120.225 93.9103L120.224 93.9084ZM119.562 93.5603C119.637 93.4191 119.596 93.2874 119.415 93.1914L119.176 93.0654L118.935 93.5207L119.174 93.6468C119.355 93.7428 119.487 93.7014 119.56 93.5603H119.562Z" fill="#EFBEBA"/>
<path d="M120.261 94.2321C120.572 93.6431 121.262 93.4624 121.897 93.7955C122.53 94.1304 122.767 94.8022 122.456 95.3893C122.146 95.9783 121.456 96.1589 120.821 95.8259C120.188 95.4909 119.95 94.8191 120.261 94.2321ZM121.795 95.0412C121.955 94.7382 121.857 94.4522 121.616 94.3261C121.375 94.1982 121.083 94.2791 120.923 94.5821C120.762 94.885 120.86 95.171 121.102 95.2971C121.343 95.4251 121.635 95.3441 121.795 95.0412Z" fill="#EFBEBA"/>
<path d="M123.272 96.4393L123.095 96.3452L122.837 96.8344L122.181 96.4882L123.21 94.5463L124.147 95.0411C124.689 95.3272 124.883 95.7919 124.646 96.2417C124.497 96.522 124.252 96.6632 123.956 96.6575L124.047 97.4723L123.346 97.1035L123.274 96.4411L123.272 96.4393ZM123.836 95.5229L123.596 95.3968L123.355 95.8522L123.595 95.9782C123.775 96.0742 123.907 96.0328 123.981 95.8917C124.056 95.7506 124.015 95.6188 123.834 95.5229H123.836Z" fill="#EFBEBA"/>
<path d="M125.404 96.3545L124.834 96.0535L125.104 95.5454L126.898 96.4919L126.628 97L126.059 96.6989L125.3 98.1327L124.644 97.7865L125.404 96.3527V96.3545Z" fill="#EFBEBA"/>
</svg>
