<svg width="15" height="15" viewBox="0 0 15 15" fill="none" xmlns="http://www.w3.org/2000/svg">
<mask id="mask0_785_2073" style="mask-type:alpha" maskUnits="userSpaceOnUse" x="0" y="0" width="15" height="15">
<rect width="15" height="15" fill="#D9D9D9"/>
</mask>
<g mask="url(#mask0_785_2073)">
<path d="M2.69233 13.4375C2.3766 13.4375 2.10936 13.3281 1.89061 13.1094C1.67186 12.8906 1.56248 12.6234 1.56248 12.3077V6.44235C1.56248 6.12662 1.67186 5.85938 1.89061 5.64063C2.10936 5.42188 2.3766 5.31251 2.69233 5.31251H12.3076C12.6234 5.31251 12.8906 5.42188 13.1094 5.64063C13.3281 5.85938 13.4375 6.12662 13.4375 6.44235V12.3077C13.4375 12.6234 13.3281 12.8906 13.1094 13.1094C12.8906 13.3281 12.6234 13.4375 12.3076 13.4375H2.69233ZM2.69233 12.5H12.3076C12.3558 12.5 12.3998 12.48 12.4398 12.4399C12.4799 12.3999 12.5 12.3558 12.5 12.3077V6.44235C12.5 6.39423 12.4799 6.35016 12.4398 6.31016C12.3998 6.27006 12.3558 6.25001 12.3076 6.25001H2.69233C2.6442 6.25001 2.60014 6.27006 2.56014 6.31016C2.52004 6.35016 2.49998 6.39423 2.49998 6.44235V12.3077C2.49998 12.3558 2.52004 12.3999 2.56014 12.4399C2.60014 12.48 2.6442 12.5 2.69233 12.5ZM6.40623 11.5866L9.72358 9.37501L6.40623 7.16344V11.5866ZM2.65623 4.4472V3.5097H12.3437V4.4472H2.65623ZM4.53123 2.64423V1.70673H10.4687V2.64423H4.53123Z" fill="white"/>
</g>
</svg>
