<svg width="20" height="20" viewBox="0 0 20 20" fill="none" xmlns="http://www.w3.org/2000/svg">
<path d="M16.89 8H3.11C3.05 8 3 8.05 3 8.11V9.9C3 9.96 3.05 10.01 3.11 10.01H4.08C4.32 11.59 5.19 12.96 6.42 13.87L3.76 18H5.76C5.76 18 5.83 17.98 5.85 17.95L7.96 14.67C8.57 14.88 9.22 15 9.89 15H10.1C10.78 15 11.43 14.88 12.03 14.67L14.14 17.95C14.14 17.95 14.19 18 14.23 18H16.24L13.58 13.86C14.81 12.95 15.68 11.58 15.92 10H16.89C16.95 10 17 9.95 17 9.89V8.1C17 8.04 16.95 7.99 16.89 7.99V8Z" fill="black"/>
<path d="M11.7 5.23C11.7 5.38 11.64 5.52 11.51 5.64C11.26 5.89 11.07 6.18 10.95 6.5H13.35C13.57 6.12 13.7 5.68 13.7 5.23C13.7 4.55 13.43 3.91 12.94 3.41C12.73 3.2 12.73 2.85 12.94 2.63C13.13 2.44 13.27 2.22 13.39 2H11C10.59 2.93 10.77 4.06 11.54 4.84C11.64 4.94 11.7 5.08 11.7 5.23Z" fill="black"/>
<path d="M7.09 5.23C7.09 5.38 7.03 5.52 6.9 5.64C6.65 5.89 6.46 6.19 6.34 6.5H8.74C8.96 6.12 9.09 5.68 9.09 5.23C9.09 4.55 8.82 3.91 8.33 3.41C8.12 3.2 8.12 2.85 8.33 2.63C8.52 2.44 8.66 2.23 8.78 2H6.39C5.98 2.93 6.16 4.06 6.93 4.84C7.03 4.94 7.09 5.08 7.09 5.23Z" fill="black"/>
</svg>
