<svg width="20" height="20" viewBox="0 0 20 20" fill="none" xmlns="http://www.w3.org/2000/svg">
<path d="M10 14.95L9.11 15.84C8.62 16.33 8.62 17.14 9.11 17.63C9.6 18.12 10.41 18.12 10.9 17.63C11.39 17.14 11.39 16.33 10.9 15.84L10.01 14.95H10Z" fill="black"/>
<path d="M6.37 14.95L5.48 15.84C4.99 16.33 4.99 17.14 5.48 17.63C5.97 18.12 6.78 18.12 7.27 17.63C7.76 17.14 7.76 16.33 7.27 15.84L6.38 14.95H6.37Z" fill="black"/>
<path d="M13.63 14.95L12.74 15.84C12.25 16.33 12.25 17.14 12.74 17.63C13.23 18.12 14.04 18.12 14.53 17.63C15.02 17.14 15.02 16.33 14.53 15.84L13.64 14.95H13.63Z" fill="black"/>
<path d="M16.84 6H3.16C2.24 6 1.5 6.74 1.5 7.66V9.49C1.5 10.41 2.24 11.15 3.16 11.15H4.5V12.08C4.5 13.14 5.36 14 6.42 14H13.58C14.64 14 15.5 13.14 15.5 12.08V11.15H16.84C17.76 11.15 18.5 10.41 18.5 9.49V7.66C18.5 6.74 17.76 6 16.84 6ZM4.5 9.15H3.5V8H4.5V9.15ZM16.5 9.15H15.5V8H16.5V9.15Z" fill="black"/>
<path d="M15.5 4C15.5 3.45 15.05 3 14.5 3H11.5V2H8.5V3H5.5C4.95 3 4.5 3.45 4.5 4V5H15.5V4Z" fill="black"/>
</svg>
