<svg width="20" height="20" viewBox="0 0 20 20" fill="none" xmlns="http://www.w3.org/2000/svg">
<path d="M15.5319 13.5443L14.0619 14.2743C12.9319 14.8343 11.5819 14.6143 10.6819 13.7243C9.18193 12.2243 6.90193 11.8543 5.00193 12.8043L3.53193 13.5343C3.04193 13.7843 2.84193 14.3843 3.08193 14.8743C3.33193 15.3643 3.93193 15.5643 4.42193 15.3243L5.89193 14.5943C7.02193 14.0343 8.37193 14.2543 9.27193 15.1443C10.2219 16.0943 11.4719 16.5843 12.7519 16.5843C13.5019 16.5843 14.2519 16.4143 14.9519 16.0643L16.4219 15.3343C16.9119 15.0843 17.1119 14.4843 16.8719 13.9943C16.6219 13.5043 16.0219 13.2943 15.5319 13.5443Z" fill="black"/>
<path d="M15.5319 9.54406L14.9519 9.83406L9.79193 4.66406C8.49193 3.36406 6.37193 3.36406 5.07193 4.66406L3.93193 5.80406C3.54193 6.19406 3.54193 6.82406 3.93193 7.21406C4.32193 7.60406 4.95193 7.60406 5.34193 7.21406L6.48193 6.07406C7.00193 5.55406 7.85193 5.55406 8.37193 6.07406L8.55193 6.25406L6.47193 8.33406C5.97193 8.41406 5.47193 8.56406 5.00193 8.80406L3.53193 9.53406C3.04193 9.78406 2.84193 10.3841 3.08193 10.8741C3.33193 11.3641 3.93193 11.5741 4.42193 11.3241L5.89193 10.5941C7.02193 10.0341 8.37193 10.2541 9.27193 11.1441C10.2219 12.0941 11.4719 12.5841 12.7519 12.5841C13.5019 12.5841 14.2519 12.4141 14.9519 12.0641L16.4219 11.3341C16.9119 11.0841 17.1119 10.4841 16.8719 9.99406C16.6219 9.50406 16.0219 9.29406 15.5319 9.54406Z" fill="black"/>
<path d="M14.9805 7.43398C16.085 7.43398 16.9805 6.53855 16.9805 5.43398C16.9805 4.32941 16.085 3.43398 14.9805 3.43398C13.8759 3.43398 12.9805 4.32941 12.9805 5.43398C12.9805 6.53855 13.8759 7.43398 14.9805 7.43398Z" fill="black"/>
</svg>
